<?xml version="1.0" standalone="no"?>
<!DOCTYPE svg PUBLIC "-//W3C//DTD SVG 20010904//EN"
 "http://www.w3.org/TR/2001/REC-SVG-20010904/DTD/svg10.dtd">
<svg version="1.0" xmlns="http://www.w3.org/2000/svg"
 width="756.000000pt" height="756.000000pt" viewBox="0 0 756.000000 756.000000"
 preserveAspectRatio="xMidYMid meet">
<metadata>
Created by potrace 1.14, written by Peter Selinger 2001-2017
</metadata>
<g transform="translate(0.000000,756.000000) scale(0.100000,-0.100000)"
fill="#000000" stroke="none">
<path d="M3388 7536 c-74 -26 -154 -69 -393 -211 -98 -58 -181 -105 -186 -105
-5 0 -9 -4 -9 -10 0 -5 -4 -10 -10 -10 -5 0 -92 -46 -192 -101 -101 -56 -208
-115 -238 -132 -30 -16 -89 -48 -130 -72 -41 -23 -102 -57 -135 -75 -207 -114
-743 -418 -868 -494 -42 -25 -218 -115 -284 -145 -29 -13 -53 -27 -53 -31 0
-4 17 -23 38 -41 35 -32 80 -60 282 -173 47 -27 95 -58 107 -70 l22 -21 2
-495 c2 -272 -1 -515 -5 -540 -9 -56 -37 -113 -89 -182 -59 -78 -97 -140 -97
-158 0 -23 108 -166 167 -222 28 -25 64 -53 81 -62 l32 -16 24 47 c13 27 56
93 95 147 96 135 95 166 -14 264 -91 81 -97 123 -100 725 -2 345 0 420 12 424
13 5 269 -127 563 -292 41 -23 116 -64 165 -90 50 -26 124 -68 165 -93 77 -46
130 -60 192 -48 36 7 180 84 478 256 220 128 436 251 525 300 33 18 74 41 92
51 18 10 120 66 228 124 108 59 249 137 313 174 158 91 225 119 272 115 8 -1
22 -2 30 -3 9 0 47 -21 85 -46 39 -25 85 -51 103 -57 42 -16 38 -33 -18 -74
-54 -39 -178 -114 -190 -114 -5 0 -10 -4 -12 -8 -3 -7 -117 -74 -269 -157 -30
-16 -174 -96 -320 -176 -235 -130 -369 -203 -629 -342 -140 -75 -285 -159
-333 -194 -83 -61 -83 -61 66 -133 142 -68 173 -86 285 -168 183 -133 209
-132 497 32 50 28 98 55 107 61 28 17 312 179 333 190 11 6 70 38 130 72 61
33 164 88 230 123 66 35 167 89 225 120 58 31 141 77 185 100 44 24 94 51 112
61 18 10 63 35 100 55 37 20 109 61 160 90 51 30 94 54 98 54 3 0 22 11 43 24
20 13 105 63 187 111 249 146 395 249 378 266 -11 10 -406 228 -723 399 -285
153 -277 149 -545 297 -260 144 -289 157 -358 156 -51 0 -66 -5 -135 -48 -68
-43 -467 -271 -503 -288 -8 -4 -30 -17 -49 -28 -19 -12 -55 -32 -80 -46 -25
-13 -61 -33 -80 -45 -50 -29 -438 -246 -545 -305 -293 -162 -399 -218 -445
-237 -47 -19 -102 -23 -141 -11 -42 13 -209 130 -198 139 7 5 163 91 174 95 5
2 17 9 25 16 8 7 40 26 70 42 30 17 120 67 200 113 120 68 385 214 870 478 36
19 82 46 102 59 21 13 40 23 43 23 3 0 22 10 43 23 20 13 62 37 92 54 140 78
230 130 245 143 15 13 15 15 -7 33 -54 43 -162 109 -283 173 -72 37 -150 80
-175 96 -108 67 -145 74 -232 44z"/>
<path d="M4985 5377 c-11 -8 -67 -39 -125 -69 -58 -31 -134 -73 -170 -93 -36
-20 -90 -51 -120 -68 -30 -16 -190 -107 -355 -200 -165 -94 -322 -182 -350
-197 -27 -15 -74 -42 -103 -59 -29 -17 -54 -31 -56 -31 -2 0 -46 -24 -99 -54
l-95 -54 -87 29 c-77 26 -272 118 -380 179 -92 52 -194 112 -445 260 -146 87
-294 174 -330 194 -130 74 -325 166 -345 164 -19 -3 -19 -13 -20 -446 0 -244
2 -448 5 -452 5 -7 207 -130 215 -130 2 0 34 -17 72 -39 37 -21 100 -55 138
-76 136 -74 181 -98 255 -140 41 -24 93 -53 115 -65 22 -12 75 -42 118 -67 42
-24 96 -54 120 -67 23 -13 69 -38 101 -56 33 -18 98 -55 145 -82 48 -27 122
-67 166 -89 68 -33 86 -37 112 -30 28 8 220 105 303 153 19 11 67 37 105 58
39 20 162 89 275 152 113 63 230 128 260 145 118 65 248 137 300 166 30 17 87
49 125 72 39 22 91 51 117 63 25 13 48 28 50 35 5 15 11 907 6 907 -2 0 -12
-6 -23 -13z"/>
<path d="M1720 4338 c-1 -68 -3 -204 -5 -303 -3 -182 -17 -2228 -19 -2800 0
-170 2 -329 5 -352 7 -48 26 -76 45 -69 10 4 138 -66 304 -168 46 -28 147 -88
168 -101 9 -6 157 -94 327 -196 421 -253 554 -329 558 -321 4 7 8 993 11 2685
l1 978 -90 48 c-49 26 -110 58 -135 72 -25 14 -72 41 -105 59 -171 95 -479
268 -625 350 -91 52 -183 103 -205 116 -99 54 -162 89 -190 106 -16 10 -33 18
-37 18 -3 0 -7 -55 -8 -122z"/>
<path d="M3994 3810 c-43 -23 -88 -51 -99 -63 -20 -22 -20 -35 -18 -1792 1
-974 4 -1783 7 -1800 10 -55 38 -105 62 -111 37 -9 106 34 129 81 18 36 20 57
18 195 -2 85 -3 533 -2 995 2 1977 1 2218 -3 2367 -2 87 -7 160 -9 163 -3 2
-41 -13 -85 -35z"/>
<path d="M4857 3664 c-1 -1 -139 -4 -307 -8 -168 -3 -316 -8 -329 -9 -24 -3
-25 -6 -27 -108 -1 -57 -5 -196 -8 -308 l-6 -204 178 7 c483 21 746 15 887
-19 179 -43 305 -136 355 -262 32 -82 36 -243 8 -327 -64 -192 -235 -294 -548
-325 -82 -8 -458 -5 -530 4 -82 10 -321 8 -333 -4 -12 -12 -19 -569 -7 -576 4
-2 69 -7 146 -10 242 -11 344 -35 456 -107 108 -70 201 -185 428 -535 342
-527 457 -693 568 -819 l44 -49 419 -1 c296 -1 419 2 419 10 0 20 -89 184
-177 328 -115 187 -468 716 -567 848 -86 115 -132 162 -246 250 -69 54 -190
165 -190 175 0 4 64 23 103 31 76 14 245 83 337 137 226 133 364 308 434 551
48 164 51 318 11 527 -26 137 -114 328 -195 423 -140 165 -384 290 -645 332
-20 3 -46 7 -57 9 -11 3 -46 7 -77 11 -31 3 -65 8 -76 10 -29 6 -463 22 -468
18z"/>
</g>
</svg>
